<svg width="20" height="20" viewBox="0 0 20 20" fill="none" xmlns="http://www.w3.org/2000/svg">
<path d="M9.16699 14.1666H10.8337V10.8333H14.167V9.16663H10.8337V5.83329H9.16699V9.16663H5.83366V10.8333H9.16699V14.1666ZM10.0003 18.3333C8.84755 18.3333 7.76421 18.118 6.75033 17.6875C5.73644 17.243 4.85449 16.6458 4.10449 15.8958C3.35449 15.1458 2.75727 14.2638 2.31283 13.25C1.88227 12.2361 1.66699 11.1527 1.66699 9.99996C1.66699 8.84718 1.88227 7.76385 2.31283 6.74996C2.75727 5.73607 3.35449 4.85413 4.10449 4.10413C4.85449 3.35413 5.73644 2.76385 6.75033 2.33329C7.76421 1.88885 8.84755 1.66663 10.0003 1.66663C11.1531 1.66663 12.2364 1.88885 13.2503 2.33329C14.2642 2.76385 15.1462 3.35413 15.8962 4.10413C16.6462 4.85413 17.2364 5.73607 17.667 6.74996C18.1114 7.76385 18.3337 8.84718 18.3337 9.99996C18.3337 11.1527 18.1114 12.2361 17.667 13.25C17.2364 14.2638 16.6462 15.1458 15.8962 15.8958C15.1462 16.6458 14.2642 17.243 13.2503 17.6875C12.2364 18.118 11.1531 18.3333 10.0003 18.3333ZM10.0003 16.6666C11.8614 16.6666 13.4378 16.0208 14.7295 14.7291C16.0212 13.4375 16.667 11.8611 16.667 9.99996C16.667 8.13885 16.0212 6.56246 14.7295 5.27079C13.4378 3.97913 11.8614 3.33329 10.0003 3.33329C8.13921 3.33329 6.56283 3.97913 5.27116 5.27079C3.97949 6.56246 3.33366 8.13885 3.33366 9.99996C3.33366 11.8611 3.97949 13.4375 5.27116 14.7291C6.56283 16.0208 8.13921 16.6666 10.0003 16.6666Z" fill="#3565E3"/>
</svg>
