<svg width="41" height="41" viewBox="0 0 41 41" fill="none" xmlns="http://www.w3.org/2000/svg">
<path d="M4.2666 7.66188V30.6091C4.27111 32.2999 4.9448 33.9202 6.14043 35.1159C7.33605 36.3115 8.95637 36.9852 10.6472 36.9897H19.2829C19.4058 36.1026 19.6606 35.2389 20.0388 34.4272C21.0735 32.1451 22.9447 30.3473 25.2663 29.4047C24.4297 28.8258 23.7464 28.0521 23.2755 27.1504C22.8045 26.2486 22.5599 25.2458 22.5629 24.2284C22.5645 22.5469 23.2333 20.9347 24.4223 19.7457C25.6113 18.5567 27.2235 17.8879 28.905 17.8862C29.5174 17.8839 30.1265 17.9746 30.7116 18.1553C31.672 18.4395 32.5506 18.949 33.2741 19.6416V7.66188C33.2739 5.96968 32.6017 4.34683 31.4051 3.15026C30.2085 1.95369 28.5857 1.2814 26.8935 1.28125H10.6472C8.9557 1.28358 7.33411 1.95657 6.13802 3.15266C4.94192 4.34876 4.26893 5.97034 4.2666 7.66188ZM12.0054 7.63625H25.5354C25.8752 7.63625 26.201 7.77124 26.4413 8.01152C26.6816 8.2518 26.8166 8.57769 26.8166 8.9175C26.8166 9.25731 26.6816 9.5832 26.4413 9.82348C26.201 10.0638 25.8752 10.1988 25.5354 10.1988H12.0054C11.6655 10.1988 11.3397 10.0638 11.0994 9.82348C10.8591 9.5832 10.7241 9.25731 10.7241 8.9175C10.7241 8.57769 10.8591 8.2518 11.0994 8.01152C11.3397 7.77124 11.6655 7.63625 12.0054 7.63625ZM12.0054 14.4525H25.5354C25.8752 14.4525 26.201 14.5875 26.4413 14.8278C26.6816 15.0681 26.8166 15.3939 26.8166 15.7337C26.8166 16.0736 26.6816 16.3994 26.4413 16.6397C26.201 16.88 25.8752 17.015 25.5354 17.015H12.0054C11.6655 17.015 11.3397 16.88 11.0994 16.6397C10.8591 16.3994 10.7241 16.0736 10.7241 15.7337C10.7241 15.3939 10.8591 15.0681 11.0994 14.8278C11.3397 14.5875 11.6655 14.4525 12.0054 14.4525ZM12.0054 21.2559H18.1554C18.4952 21.2559 18.8211 21.3909 19.0613 21.6312C19.3016 21.8715 19.4366 22.1974 19.4366 22.5372C19.4366 22.877 19.3016 23.2029 19.0613 23.4432C18.8211 23.6835 18.4952 23.8184 18.1554 23.8184H12.0054C11.6655 23.8184 11.3397 23.6835 11.0994 23.4432C10.8591 23.2029 10.7241 22.877 10.7241 22.5372C10.7241 22.1974 10.8591 21.8715 11.0994 21.6312C11.3397 21.3909 11.6655 21.2559 12.0054 21.2559Z" fill="white"/>
<path d="M28.9049 28.6487C31.3462 28.6487 33.3252 26.6697 33.3252 24.2284C33.3252 21.7871 31.3462 19.8081 28.9049 19.8081C26.4637 19.8081 24.4846 21.7871 24.4846 24.2284C24.4846 26.6697 26.4637 28.6487 28.9049 28.6487Z" fill="white"/>
<path d="M22.3706 39.7185H35.4522C35.7917 39.7175 36.117 39.5822 36.357 39.3421C36.5971 39.1021 36.7324 38.7768 36.7334 38.4373C36.7334 36.3627 35.9093 34.3732 34.4424 32.9063C32.9755 31.4393 30.9859 30.6152 28.9114 30.6152C26.8369 30.6152 24.8473 31.4393 23.3804 32.9063C21.9135 34.3732 21.0894 36.3627 21.0894 38.4373C21.0903 38.7768 21.2256 39.1021 21.4657 39.3422C21.7058 39.5822 22.0311 39.7175 22.3706 39.7185Z" fill="white"/>
</svg>
