<svg width="23" height="30" viewBox="0 0 23 30" fill="none" xmlns="http://www.w3.org/2000/svg">
<path d="M22.594 7.28859L15.563 0.25752C15.3988 0.0933398 15.1748 0 14.9414 0H2.63672C1.18283 0 0 1.18283 0 2.63672V27.3633C0 28.8172 1.18283 30 2.63672 30H20.2148C21.6687 30 22.8516 28.8172 22.8516 27.3633V7.91016C22.8516 7.67051 22.751 7.44545 22.594 7.28859ZM15.8203 3.00076L19.8508 7.03125H16.6992C16.2146 7.03125 15.8203 6.63697 15.8203 6.15234V3.00076ZM20.2148 28.2422H2.63672C2.15209 28.2422 1.75781 27.8479 1.75781 27.3633V2.63672C1.75781 2.15209 2.15209 1.75781 2.63672 1.75781H14.0625V6.15234C14.0625 7.60623 15.2453 8.78906 16.6992 8.78906H21.0938V27.3633C21.0938 27.8479 20.6995 28.2422 20.2148 28.2422Z" fill="#A098AE"/>
<path d="M16.6992 12.4219H6.15234C5.66695 12.4219 5.27344 12.8154 5.27344 13.3008C5.27344 13.7862 5.66695 14.1797 6.15234 14.1797H16.6992C17.1846 14.1797 17.5781 13.7862 17.5781 13.3008C17.5781 12.8154 17.1846 12.4219 16.6992 12.4219Z" fill="#A098AE"/>
<path d="M16.6992 15.9375H6.15234C5.66695 15.9375 5.27344 16.331 5.27344 16.8164C5.27344 17.3018 5.66695 17.6953 6.15234 17.6953H16.6992C17.1846 17.6953 17.5781 17.3018 17.5781 16.8164C17.5781 16.331 17.1846 15.9375 16.6992 15.9375Z" fill="#A098AE"/>
<path d="M16.6992 19.4531H6.15234C5.66695 19.4531 5.27344 19.8466 5.27344 20.332C5.27344 20.8174 5.66695 21.2109 6.15234 21.2109H16.6992C17.1846 21.2109 17.5781 20.8174 17.5781 20.332C17.5781 19.8466 17.1846 19.4531 16.6992 19.4531Z" fill="#A098AE"/>
<path d="M13.1836 22.9688H6.15234C5.66695 22.9688 5.27344 23.3623 5.27344 23.8477C5.27344 24.333 5.66695 24.7266 6.15234 24.7266H13.1836C13.669 24.7266 14.0625 24.333 14.0625 23.8477C14.0625 23.3623 13.669 22.9688 13.1836 22.9688Z" fill="#A098AE"/>
</svg>
