<svg width="26" height="26" viewBox="0 0 26 26" fill="none" xmlns="http://www.w3.org/2000/svg">
<path d="M9.14062 15.8438H3.04688C1.36683 15.8438 0 17.2106 0 18.8906V22.9531C0 24.6332 1.36683 26 3.04688 26H9.14062C10.8207 26 12.1875 24.6332 12.1875 22.9531V18.8906C12.1875 17.2106 10.8207 15.8438 9.14062 15.8438ZM10.1562 22.9531C10.1562 23.5131 9.70064 23.9688 9.14062 23.9688H3.04688C2.48686 23.9688 2.03125 23.5131 2.03125 22.9531V18.8906C2.03125 18.3306 2.48686 17.875 3.04688 17.875H9.14062C9.70064 17.875 10.1562 18.3306 10.1562 18.8906V22.9531ZM22.9531 0H16.8594C15.1793 0 13.8125 1.36683 13.8125 3.04688V7.10938C13.8125 8.78942 15.1793 10.1562 16.8594 10.1562H22.9531C24.6332 10.1562 26 8.78942 26 7.10938V3.04688C26 1.36683 24.6332 0 22.9531 0ZM23.9688 7.10938C23.9688 7.66939 23.5131 8.125 22.9531 8.125H16.8594C16.2994 8.125 15.8438 7.66939 15.8438 7.10938V3.04688C15.8438 2.48686 16.2994 2.03125 16.8594 2.03125H22.9531C23.5131 2.03125 23.9688 2.48686 23.9688 3.04688V7.10938ZM22.9531 11.7812H16.8594C15.1793 11.7812 13.8125 13.1481 13.8125 14.8281V22.9531C13.8125 24.6332 15.1793 26 16.8594 26H22.9531C24.6332 26 26 24.6332 26 22.9531V14.8281C26 13.1481 24.6332 11.7812 22.9531 11.7812ZM23.9688 22.9531C23.9688 23.5131 23.5131 23.9688 22.9531 23.9688H16.8594C16.2994 23.9688 15.8438 23.5131 15.8438 22.9531V14.8281C15.8438 14.2681 16.2994 13.8125 16.8594 13.8125H22.9531C23.5131 13.8125 23.9688 14.2681 23.9688 14.8281V22.9531ZM9.14062 0H3.04688C1.36683 0 0 1.36683 0 3.04688V11.1719C0 12.8519 1.36683 14.2188 3.04688 14.2188H9.14062C10.8207 14.2188 12.1875 12.8519 12.1875 11.1719V3.04688C12.1875 1.36683 10.8207 0 9.14062 0ZM10.1562 11.1719C10.1562 11.7319 9.70064 12.1875 9.14062 12.1875H3.04688C2.48686 12.1875 2.03125 11.7319 2.03125 11.1719V3.04688C2.03125 2.48686 2.48686 2.03125 3.04688 2.03125H9.14062C9.70064 2.03125 10.1562 2.48686 10.1562 3.04688V11.1719Z" fill="#A098AE"/>
</svg>
