<svg width="35" height="35" viewBox="0 0 35 35" fill="none" xmlns="http://www.w3.org/2000/svg">
<g clip-path="url(#clip0_372_16819)">
<path d="M13.4895 0H2.55199C1.14475 0 0 1.14475 0 2.55199V9.11449C0 10.522 1.14475 11.6668 2.55199 11.6668H13.4895C14.897 11.6668 16.0418 10.522 16.0418 9.11449V2.55199C16.0418 1.14475 14.897 0 13.4895 0Z" fill="white"/>
<path d="M13.4895 14.583H2.55199C1.14475 14.583 0 15.7278 0 17.1353V32.4478C0 33.855 1.14475 34.9998 2.55199 34.9998H13.4895C14.897 34.9998 16.0418 33.855 16.0418 32.4478V17.1353C16.0418 15.7278 14.897 14.583 13.4895 14.583Z" fill="white"/>
<path d="M32.448 23.333H21.5105C20.103 23.333 18.9583 24.4778 18.9583 25.8853V32.4478C18.9583 33.855 20.103 34.9998 21.5105 34.9998H32.448C33.8553 34.9998 35 33.855 35 32.4478V25.8853C35 24.4778 33.8553 23.333 32.448 23.333Z" fill="white"/>
<path d="M32.448 0H21.5105C20.103 0 18.9583 1.14475 18.9583 2.55199V17.8645C18.9583 19.272 20.103 20.4168 21.5105 20.4168H32.448C33.8553 20.4168 35 19.272 35 17.8645V2.55199C35 1.14475 33.8553 0 32.448 0Z" fill="white"/>
</g>
<defs>
<clipPath id="clip0_372_16819">
<rect width="35" height="35" fill="white"/>
</clipPath>
</defs>
</svg>
