<svg width="30" height="30" viewBox="0 0 30 30" fill="none" xmlns="http://www.w3.org/2000/svg">
<g clip-path="url(#clip0_412_17373)">
<path d="M30 9.06738C30 7.6135 28.8172 6.43066 27.3633 6.43066H22.6758V4.53943C22.6758 3.01371 21.4345 1.77246 19.9089 1.77246H10.0912C8.56547 1.77246 7.32422 3.01371 7.32422 4.53943V6.43066H2.63672C1.18283 6.43066 0 7.6135 0 9.06738V13.2274C0 14.0026 0.252422 14.9693 1.17188 15.9176V25.5908C1.17188 27.0447 2.35471 28.2275 3.80859 28.2275H26.1914C27.6453 28.2275 28.8281 27.0447 28.8281 25.5908V15.9176C29.7472 14.9698 30 14.0034 30 13.2274V9.06738ZM9.08203 4.53943C9.08203 3.98297 9.53473 3.53027 10.0912 3.53027H19.9089C20.4653 3.53027 20.918 3.98297 20.918 4.53943V6.43066H9.08203V4.53943ZM1.75781 9.06738C1.75781 8.58275 2.15209 8.18848 2.63672 8.18848H27.3633C27.8479 8.18848 28.2422 8.58275 28.2422 9.06738V13.2274C28.2422 15.3899 24.0933 17.1547 18.0469 17.6171V16.8018C18.0469 16.3164 17.6534 15.9229 17.168 15.9229H12.832C12.3466 15.9229 11.9531 16.3164 11.9531 16.8018V17.6168C5.91217 17.1538 1.75781 15.3844 1.75781 13.2274V9.06738ZM16.2891 17.6807V18.8232C16.2891 19.4532 15.7765 19.9658 15.1465 19.9658H14.8535C14.2235 19.9658 13.7109 19.4532 13.7109 18.8232V17.6807H16.2891ZM26.1914 26.4697H3.80859C3.32396 26.4697 2.92969 26.0754 2.92969 25.5908V17.2075C5.54672 18.5486 8.29699 19.0656 12.008 19.3836C12.2698 20.7155 13.446 21.7236 14.8535 21.7236H15.1465C16.5541 21.7236 17.7304 20.7154 17.9921 19.3833C21.0575 19.1613 23.8249 18.5987 25.8455 17.781C26.2999 17.5972 26.7063 17.4051 27.0703 17.2073V25.5908C27.0703 26.0754 26.676 26.4697 26.1914 26.4697Z" fill="#A098AE"/>
</g>
<defs>
<clipPath id="clip0_412_17373">
<rect width="30" height="30" fill="white"/>
</clipPath>
</defs>
</svg>
