<svg width="33" height="33" viewBox="0 0 33 33" fill="none" xmlns="http://www.w3.org/2000/svg">
<path d="M17.4668 22.3008C18.0007 22.3008 18.4336 21.8679 18.4336 21.334V17.4668C18.4336 16.9329 18.0009 16.5 17.4668 16.5H15.5332C14.9993 16.5 14.5664 16.9327 14.5664 17.4668V21.334C14.5664 21.8678 14.9993 22.3008 15.5332 22.3008H17.4668Z" fill="black"/>
<path d="M30.0996 5.86523H23.2676C23.2676 5.67052 23.2676 4.70372 23.2676 4.89844C23.2676 3.2991 21.9666 1.99805 20.3672 1.99805C20.1573 1.99805 12.3457 1.99805 12.6328 1.99805C11.0335 1.99805 9.73242 3.29903 9.73242 4.89844C9.73242 5.09315 9.73242 6.05995 9.73242 5.86523H2.90039C1.30105 5.86523 0 7.16622 0 8.76562C0 10.6591 0.232031 12.3173 0.692742 13.7304C1.15345 15.1435 1.84291 16.3117 2.75782 17.2251C4.29741 18.7626 6.25846 19.4004 8.46044 19.4004H12.6328C12.6328 19.2057 12.6328 17.2721 12.6328 17.4668C12.6328 15.8675 13.9338 14.5664 15.5332 14.5664C15.7279 14.5664 17.6615 14.5664 17.4668 14.5664C19.0661 14.5664 20.3672 15.8674 20.3672 17.4668C20.3672 17.6615 20.3672 19.5951 20.3672 19.4004H22.5153C24.4399 19.3204 27.588 19.9056 30.2412 17.2647C31.1566 16.3536 31.8462 15.1834 32.3071 13.7636C32.768 12.3439 33 10.6747 33 8.76562C33 7.16629 31.699 5.86523 30.0996 5.86523ZM11.666 4.89844C11.666 4.36502 12.0993 3.93164 12.6328 3.93164H20.3672C20.9006 3.93164 21.334 4.36496 21.334 4.89844C21.334 5.09315 21.334 6.05995 21.334 5.86523H11.666C11.666 5.67052 11.666 4.70372 11.666 4.89844Z" fill="black"/>
<path d="M22.5418 21.334H20.3672C20.3672 22.9334 19.0662 24.2344 17.4668 24.2344C17.2721 24.2344 15.3385 24.2344 15.5332 24.2344C13.9339 24.2344 12.6328 22.9334 12.6328 21.334C12.4119 21.334 8.23015 21.334 8.46888 21.334C5.71132 21.334 3.28924 20.4879 1.39161 18.5932C0.855551 18.0581 0.397805 17.4555 0 16.811V30.0352C0 30.5696 0.432416 31.002 0.966797 31.002H32.0332C32.5676 31.002 33 30.5696 33 30.0352V16.8508C32.5968 17.5051 32.1372 18.1062 31.6055 18.6357C28.5549 21.6703 25.306 21.2035 22.5418 21.334Z" fill="black"/>
</svg>
