<svg width="35" height="35" viewBox="0 0 35 35" fill="none" xmlns="http://www.w3.org/2000/svg">
<path d="M35 10.5786C35 8.88241 33.62 7.50244 31.9238 7.50244H26.4551V5.29601C26.4551 3.516 25.007 2.06787 23.227 2.06787H11.7731C9.99305 2.06787 8.54492 3.516 8.54492 5.29601V7.50244H3.07617C1.37997 7.50244 0 8.88241 0 10.5786V15.4319C0 16.3363 0.294492 17.4642 1.36719 18.5705V29.856C1.36719 31.5522 2.74716 32.9321 4.44336 32.9321H30.5566C32.2528 32.9321 33.6328 31.5522 33.6328 29.856V18.5705C34.705 17.4648 35 16.3373 35 15.4319V10.5786ZM10.5957 5.29601C10.5957 4.6468 11.1238 4.11865 11.7731 4.11865H23.2271C23.8762 4.11865 24.4044 4.6468 24.4044 5.29601V7.50244H10.5957V5.29601ZM2.05078 10.5786C2.05078 10.0132 2.51077 9.55322 3.07617 9.55322H31.9238C32.4892 9.55322 32.9492 10.0132 32.9492 10.5786V15.4319C32.9492 17.9549 28.1088 20.0138 21.0547 20.5533V19.6021C21.0547 19.0358 20.5956 18.5767 20.0293 18.5767H14.9707C14.4044 18.5767 13.9453 19.0358 13.9453 19.6021V20.5529C6.89753 20.0128 2.05078 17.9485 2.05078 15.4319V10.5786ZM19.0039 20.6274V21.9604C19.0039 22.6954 18.4059 23.2935 17.6709 23.2935H17.3291C16.5941 23.2935 15.9961 22.6954 15.9961 21.9604V20.6274H19.0039ZM30.5566 30.8813H4.44336C3.87796 30.8813 3.41797 30.4214 3.41797 29.856V20.0754C6.47117 21.64 9.67982 22.2433 14.0093 22.6142C14.3148 24.1681 15.687 25.3442 17.3291 25.3442H17.6709C19.3132 25.3442 20.6854 24.168 20.9908 22.6139C24.5671 22.3549 27.7957 21.6984 30.153 20.7445C30.6832 20.53 31.1574 20.3059 31.582 20.0752V29.856C31.582 30.4214 31.122 30.8813 30.5566 30.8813Z" fill="black"/>
</svg>
