<svg width="28" height="28" viewBox="0 0 28 28" fill="none" xmlns="http://www.w3.org/2000/svg">
<path d="M13.8005 13.4877C15.6534 13.4877 17.2578 12.8231 18.569 11.5119C19.8798 10.2009 20.5446 8.59682 20.5446 6.74364C20.5446 4.8911 19.88 3.2868 18.5688 1.97537C17.2575 0.66458 15.6532 0 13.8005 0C11.9473 0 10.3432 0.66458 9.0322 1.97558C7.72119 3.28658 7.0564 4.89089 7.0564 6.74364C7.0564 8.59682 7.72119 10.2011 9.0322 11.5121C10.3436 12.8229 11.9479 13.4877 13.8005 13.4877ZM10.1926 3.13577C11.1985 2.12982 12.3786 1.64084 13.8005 1.64084C15.2221 1.64084 16.4024 2.12982 17.4086 3.13577C18.4145 4.14193 18.9037 5.32219 18.9037 6.74364C18.9037 8.16551 18.4145 9.34556 17.4086 10.3517C16.4024 11.3579 15.2221 11.8469 13.8005 11.8469C12.379 11.8469 11.199 11.3577 10.1926 10.3517C9.18643 9.34578 8.69724 8.16551 8.69724 6.74364C8.69724 5.32219 9.18643 4.14193 10.1926 3.13577Z" fill="#A098AE"/>
<path d="M25.6008 21.5304C25.563 20.9848 25.4865 20.3897 25.3739 19.7612C25.2603 19.128 25.114 18.5294 24.9388 17.9824C24.7576 17.4169 24.5117 16.8585 24.2073 16.3234C23.8918 15.7679 23.521 15.2843 23.1048 14.8863C22.6697 14.47 22.1369 14.1352 21.5208 13.8911C20.9069 13.6482 20.2265 13.5251 19.4987 13.5251C19.2128 13.5251 18.9364 13.6424 18.4026 13.99C18.074 14.2042 17.6897 14.452 17.2607 14.7261C16.894 14.9598 16.3971 15.1788 15.7833 15.377C15.1845 15.5708 14.5766 15.669 13.9763 15.669C13.3764 15.669 12.7685 15.5708 12.1693 15.377C11.5562 15.179 11.0591 14.96 10.6929 14.7263C10.268 14.4548 9.88348 14.207 9.55002 13.9897C9.0166 13.6422 8.74017 13.5249 8.45435 13.5249C7.72632 13.5249 7.04614 13.6482 6.4324 13.8913C5.81674 14.135 5.28375 14.4698 4.84818 14.8865C4.43204 15.2847 4.06119 15.7682 3.74588 16.3234C3.44189 16.8585 3.1958 17.4167 3.01465 17.9826C2.83969 18.5297 2.69336 19.128 2.57971 19.7612C2.46692 20.3888 2.39066 20.9842 2.35284 21.5311C2.31567 22.0657 2.29688 22.6222 2.29688 23.1845C2.29688 24.6461 2.76151 25.8294 3.67773 26.702C4.58264 27.5631 5.77979 27.9998 7.23605 27.9998H20.7182C22.1741 27.9998 23.3712 27.5631 24.2763 26.702C25.1928 25.83 25.6574 24.6463 25.6574 23.1843C25.6572 22.6201 25.6382 22.0636 25.6008 21.5304ZM23.145 25.5132C22.5471 26.0823 21.7532 26.3589 20.718 26.3589H7.23605C6.20062 26.3589 5.4068 26.0823 4.80908 25.5134C4.22269 24.9552 3.93771 24.1932 3.93771 23.1845C3.93771 22.6598 3.95502 22.1418 3.98962 21.6445C4.02338 21.1566 4.09238 20.6206 4.1947 20.0511C4.29575 19.4886 4.42435 18.9607 4.5773 18.4829C4.72406 18.0246 4.92422 17.5709 5.17245 17.1338C5.40936 16.7173 5.68195 16.3599 5.98273 16.0719C6.26407 15.8025 6.61868 15.5821 7.03653 15.4167C7.42297 15.2638 7.85727 15.1801 8.32874 15.1674C8.3862 15.198 8.48853 15.2563 8.6543 15.3644C8.99161 15.5842 9.3804 15.835 9.81021 16.1095C10.2947 16.4184 10.9189 16.6974 11.6647 16.9382C12.4271 17.1847 13.2047 17.3099 13.9765 17.3099C14.7483 17.3099 15.5261 17.1847 16.2881 16.9384C17.0345 16.6972 17.6585 16.4184 18.1436 16.1091C18.5835 15.828 18.9614 15.5844 19.2987 15.3644C19.4645 15.2565 19.5668 15.198 19.6243 15.1674C20.0959 15.1801 20.5302 15.2638 20.9169 15.4167C21.3345 15.5821 21.6891 15.8028 21.9705 16.0719C22.2713 16.3597 22.5439 16.7171 22.7808 17.1341C23.0292 17.5709 23.2296 18.0249 23.3761 18.4827C23.5293 18.9612 23.6581 19.4888 23.7589 20.0509C23.8611 20.6214 23.9303 21.1576 23.964 21.6447V21.6451C23.9988 22.1405 24.0164 22.6583 24.0166 23.1845C24.0164 24.1934 23.7314 24.9552 23.145 25.5132Z" fill="#A098AE"/>
</svg>
