<svg width="32" height="32" viewBox="0 0 32 32" fill="none" xmlns="http://www.w3.org/2000/svg">
<path d="M16 8C11.59 8 8 11.59 8 16C8 20.41 11.59 24 16 24C20.41 24 24 20.41 24 16C24 11.59 20.41 8 16 8ZM13.11 21.25C13.44 19.96 14.61 19 16 19C17.39 19 18.56 19.96 18.89 21.25C18.03 21.73 17.04 22 16 22C14.96 22 13.96 21.73 13.11 21.25ZM14.5 15.5C14.5 14.67 15.17 14 16 14C16.83 14 17.5 14.67 17.5 15.5C17.5 16.33 16.83 17 16 17C15.17 17 14.5 16.33 14.5 15.5ZM20.53 19.92C20.12 19.03 19.46 18.29 18.64 17.77C19.17 17.16 19.5 16.37 19.5 15.5C19.5 13.57 17.93 12 16 12C14.07 12 12.5 13.57 12.5 15.5C12.5 16.37 12.83 17.16 13.36 17.77C12.54 18.29 11.88 19.03 11.47 19.92C10.56 18.87 10 17.5 10 16C10 12.69 12.69 10 16 10C19.31 10 22 12.69 22 16C22 17.5 21.44 18.87 20.53 19.92Z" fill="#A098AE"/>
<path d="M28.39 12.86L27.52 12.69C27.27 11.83 26.93 10.99 26.49 10.2L26.98 9.46C27.51 8.67 27.4 7.61 26.73 6.94L25.06 5.27C24.39 4.6 23.33 4.49 22.54 5.02L21.8 5.51C21.01 5.07 20.18 4.72 19.31 4.48L19.14 3.61C18.95 2.68 18.13 2 17.18 2H14.82C13.87 2 13.04 2.68 12.86 3.61L12.69 4.48C11.82 4.73 10.99 5.07 10.2 5.51L9.46 5.02C8.67 4.49 7.61 4.6 6.94 5.27L5.27 6.94C4.6 7.61 4.49 8.67 5.02 9.46L5.51 10.2C5.07 10.99 4.72 11.82 4.48 12.69L3.61 12.86C2.68 13.05 2 13.87 2 14.82V17.18C2 18.13 2.68 18.95 3.61 19.14L4.48 19.31C4.73 20.17 5.07 21.01 5.51 21.8L5.02 22.54C4.49 23.33 4.6 24.39 5.27 25.06L6.94 26.73C7.61 27.4 8.67 27.51 9.46 26.98L10.2 26.49C10.99 26.93 11.82 27.28 12.69 27.52L12.86 28.39C13.05 29.32 13.87 30 14.82 30H17.18C18.13 30 18.96 29.32 19.14 28.39L19.31 27.52C20.18 27.27 21.01 26.93 21.8 26.49L22.54 26.98C23.33 27.51 24.39 27.4 25.06 26.73L26.73 25.06C27.4 24.39 27.51 23.33 26.98 22.54L26.49 21.8C26.93 21.01 27.28 20.18 27.52 19.31L28.39 19.14C29.32 18.95 30 18.13 30 17.18V14.82C30 13.87 29.32 13.05 28.39 12.86ZM28 17.18L26.52 17.48C26.13 17.56 25.83 17.85 25.74 18.24C25.49 19.33 25.06 20.36 24.47 21.31C24.26 21.64 24.27 22.07 24.48 22.4L25.32 23.66L23.65 25.33L22.39 24.49C22.06 24.27 21.64 24.27 21.3 24.48C20.35 25.08 19.32 25.51 18.23 25.75C17.85 25.84 17.55 26.14 17.47 26.53L17.17 28.01H14.81L14.51 26.53C14.43 26.14 14.14 25.84 13.75 25.75C12.66 25.5 11.63 25.07 10.68 24.48C10.52 24.38 10.33 24.33 10.15 24.33C9.97 24.33 9.76 24.39 9.6 24.5L8.34 25.34L6.67 23.67L7.51 22.41C7.73 22.08 7.73 21.66 7.52 21.32C6.92 20.37 6.49 19.33 6.25 18.25C6.16 17.87 5.86 17.57 5.47 17.49L3.99 17.19V14.83L5.47 14.53C5.86 14.45 6.16 14.16 6.25 13.77C6.5 12.68 6.93 11.65 7.52 10.7C7.73 10.37 7.72 9.94 7.51 9.61L6.67 8.35L8.34 6.68L9.6 7.52C9.93 7.74 10.35 7.74 10.69 7.53C11.64 6.93 12.67 6.5 13.76 6.26C14.14 6.17 14.44 5.87 14.52 5.48L14.82 4H17.18L17.48 5.48C17.56 5.87 17.85 6.17 18.24 6.26C19.33 6.51 20.36 6.94 21.31 7.53C21.64 7.74 22.07 7.73 22.4 7.52L23.66 6.68L25.33 8.35L24.49 9.61C24.27 9.94 24.27 10.36 24.48 10.7C25.08 11.65 25.51 12.69 25.75 13.77C25.84 14.15 26.14 14.45 26.53 14.53L28.01 14.83V17.19L28 17.18Z" fill="#A098AE"/>
</svg>
