<svg width="32" height="32" viewBox="0 0 32 32" fill="none" xmlns="http://www.w3.org/2000/svg">
<path d="M28.39 12.86L27.52 12.69C27.27 11.83 26.93 10.99 26.49 10.2L26.98 9.46C27.51 8.67 27.4 7.61 26.73 6.94L25.06 5.27C24.39 4.6 23.33 4.49 22.54 5.02L21.8 5.51C21.01 5.07 20.18 4.72 19.31 4.48L19.14 3.61C18.95 2.68 18.13 2 17.18 2H14.82C13.87 2 13.04 2.68 12.86 3.61L12.69 4.48C11.82 4.73 10.99 5.07 10.2 5.51L9.46 5.02C8.67 4.49 7.61 4.6 6.94 5.27L5.27 6.94C4.6 7.61 4.49 8.67 5.02 9.46L5.51 10.2C5.07 10.99 4.72 11.82 4.48 12.69L3.61 12.86C2.68 13.05 2 13.87 2 14.82V17.18C2 18.13 2.68 18.95 3.61 19.14L4.48 19.31C4.73 20.17 5.07 21.01 5.51 21.8L5.02 22.54C4.49 23.33 4.6 24.39 5.27 25.06L6.94 26.73C7.61 27.4 8.67 27.51 9.46 26.98L10.2 26.49C10.99 26.93 11.82 27.28 12.69 27.52L12.86 28.39C13.05 29.32 13.87 30 14.82 30H17.18C18.13 30 18.96 29.32 19.14 28.39L19.31 27.52C20.18 27.27 21.01 26.93 21.8 26.49L22.54 26.98C23.33 27.51 24.39 27.4 25.06 26.73L26.73 25.06C27.4 24.39 27.51 23.33 26.98 22.54L26.49 21.8C26.93 21.01 27.28 20.18 27.52 19.31L28.39 19.14C29.32 18.95 30 18.13 30 17.18V14.82C30 13.87 29.32 13.05 28.39 12.86ZM16 24C11.59 24 8 20.41 8 16C8 11.59 11.59 8 16 8C20.41 8 24 11.59 24 16C24 20.41 20.41 24 16 24Z" fill="white"/>
<path d="M16 16C17.6569 16 19 14.6569 19 13C19 11.3431 17.6569 10 16 10C14.3431 10 13 11.3431 13 13C13 14.6569 14.3431 16 16 16Z" fill="white"/>
<path d="M18.97 17C18.14 17.62 17.12 18 16 18C14.88 18 13.86 17.62 13.03 17C12.17 17.64 11.52 18.55 11.21 19.6C12.3 21.05 14.04 22 16 22C17.96 22 19.69 21.06 20.79 19.6C20.48 18.55 19.83 17.64 18.97 17Z" fill="white"/>
</svg>
