<svg width="36" height="36" viewBox="0 0 36 36" fill="none" xmlns="http://www.w3.org/2000/svg">
<path d="M24.75 11.25C23.8549 11.25 22.9964 10.8944 22.3635 10.2615C21.7306 9.62855 21.375 8.77011 21.375 7.875V2.25H9C8.10489 2.25 7.24645 2.60558 6.61351 3.23851C5.98058 3.87145 5.625 4.72989 5.625 5.625V30.375C5.625 31.2701 5.98058 32.1286 6.61351 32.7615C7.24645 33.3944 8.10489 33.75 9 33.75H27C27.8951 33.75 28.7536 33.3944 29.3865 32.7615C30.0194 32.1286 30.375 31.2701 30.375 30.375V11.25H24.75ZM14.625 7.875C15.2925 7.875 15.945 8.07294 16.5 8.44379C17.0551 8.81464 17.4876 9.34174 17.7431 9.95844C17.9985 10.5751 18.0654 11.2537 17.9352 11.9084C17.8049 12.5631 17.4835 13.1645 17.0115 13.6365C16.5395 14.1085 15.9381 14.4299 15.2834 14.5602C14.6287 14.6904 13.9501 14.6235 13.3334 14.3681C12.7167 14.1126 12.1896 13.6801 11.8188 13.125C11.4479 12.57 11.25 11.9175 11.25 11.25C11.25 10.3549 11.6056 9.49645 12.2385 8.86351C12.8714 8.23058 13.7299 7.875 14.625 7.875ZM10.125 19.125C10.125 18.2299 10.4806 17.3714 11.1135 16.7385C11.7464 16.1056 12.6049 15.75 13.5 15.75H15.75C16.6451 15.75 17.5036 16.1056 18.1365 16.7385C18.7694 17.3714 19.125 18.2299 19.125 19.125V21.375C19.125 21.6734 19.0065 21.9595 18.7955 22.1705C18.5845 22.3815 18.2984 22.5 18 22.5H11.25C10.9516 22.5 10.6655 22.3815 10.4545 22.1705C10.2435 21.9595 10.125 21.6734 10.125 21.375V19.125ZM24.75 28.125H11.25C10.9516 28.125 10.6655 28.0065 10.4545 27.7955C10.2435 27.5845 10.125 27.2984 10.125 27C10.125 26.7016 10.2435 26.4155 10.4545 26.2045C10.6655 25.9935 10.9516 25.875 11.25 25.875H24.75C25.0484 25.875 25.3345 25.9935 25.5455 26.2045C25.7565 26.4155 25.875 26.7016 25.875 27C25.875 27.2984 25.7565 27.5845 25.5455 27.7955C25.3345 28.0065 25.0484 28.125 24.75 28.125ZM24.75 22.5H22.5C22.2016 22.5 21.9155 22.3815 21.7045 22.1705C21.4935 21.9595 21.375 21.6734 21.375 21.375C21.375 21.0766 21.4935 20.7905 21.7045 20.5795C21.9155 20.3685 22.2016 20.25 22.5 20.25H24.75C25.0484 20.25 25.3345 20.3685 25.5455 20.5795C25.7565 20.7905 25.875 21.0766 25.875 21.375C25.875 21.6734 25.7565 21.9595 25.5455 22.1705C25.3345 22.3815 25.0484 22.5 24.75 22.5ZM24.75 16.875H22.5C22.2016 16.875 21.9155 16.7565 21.7045 16.5455C21.4935 16.3345 21.375 16.0484 21.375 15.75C21.375 15.4516 21.4935 15.1655 21.7045 14.9545C21.9155 14.7435 22.2016 14.625 22.5 14.625H24.75C25.0484 14.625 25.3345 14.7435 25.5455 14.9545C25.7565 15.1655 25.875 15.4516 25.875 15.75C25.875 16.0484 25.7565 16.3345 25.5455 16.5455C25.3345 16.7565 25.0484 16.875 24.75 16.875Z" fill="black"/>
<path d="M24.75 8.99984H29.7225L23.625 2.90234V7.87484C23.625 8.17321 23.7435 8.45936 23.9545 8.67034C24.1655 8.88132 24.4516 8.99984 24.75 8.99984Z" fill="black"/>
</svg>
