<svg width="30" height="30" viewBox="0 0 30 30" fill="none" xmlns="http://www.w3.org/2000/svg">
<path d="M3.12598 5.60577V22.3947C3.12733 23.6324 3.6196 24.819 4.49479 25.6942C5.36997 26.5694 6.55659 27.0616 7.79429 27.063H13.4861C13.7348 27.063 13.9732 26.9642 14.149 26.7884C14.3248 26.6126 14.4236 26.3741 14.4236 26.1255C14.4236 25.8769 14.3248 25.6384 14.149 25.4626C13.9732 25.2868 13.7348 25.188 13.4861 25.188H7.79429C7.05373 25.1871 6.34374 24.8926 5.82008 24.3689C5.29642 23.8453 5.00185 23.1353 5.00098 22.3947V5.60577C5.00176 4.86518 5.29631 4.15515 5.81999 3.63148C6.34366 3.10781 7.0537 2.81327 7.79429 2.8125H19.6778C20.4184 2.81328 21.1284 3.10783 21.6521 3.6315C22.1757 4.15517 22.4703 4.86519 22.4711 5.60577V12.9176C22.4711 13.1663 22.5698 13.4047 22.7457 13.5805C22.9215 13.7564 23.1599 13.8551 23.4086 13.8551C23.6572 13.8551 23.8957 13.7564 24.0715 13.5805C24.2473 13.4047 24.3461 13.1663 24.3461 12.9176V5.60577C24.3446 4.36811 23.8523 3.18155 22.9772 2.30639C22.102 1.43123 20.9155 0.938932 19.6778 0.9375H7.79429C6.55662 0.938922 5.37004 1.43121 4.49488 2.30637C3.61971 3.18154 3.12741 4.3681 3.12598 5.60577Z" fill="black"/>
<path d="M8.78711 7.46533H18.6849C18.9336 7.46533 19.172 7.36656 19.3478 7.19074C19.5236 7.01493 19.6224 6.77647 19.6224 6.52783C19.6224 6.27919 19.5236 6.04073 19.3478 5.86492C19.172 5.6891 18.9336 5.59033 18.6849 5.59033H8.78711C8.53847 5.59033 8.30001 5.6891 8.1242 5.86492C7.94838 6.04073 7.84961 6.27919 7.84961 6.52783C7.84961 6.77647 7.94838 7.01493 8.1242 7.19074C8.30001 7.36656 8.53847 7.46533 8.78711 7.46533Z" fill="black"/>
<path d="M19.6224 11.5093C19.6224 11.2606 19.5236 11.0222 19.3478 10.8464C19.172 10.6705 18.9336 10.5718 18.6849 10.5718H8.78711C8.53847 10.5718 8.30001 10.6705 8.1242 10.8464C7.94838 11.0222 7.84961 11.2606 7.84961 11.5093C7.84961 11.7579 7.94838 11.9964 8.1242 12.1722C8.30001 12.348 8.53847 12.4468 8.78711 12.4468H18.6849C18.9336 12.4468 19.172 12.348 19.3478 12.1722C19.5236 11.9964 19.6224 11.7579 19.6224 11.5093Z" fill="black"/>
<path d="M8.78711 15.5537C8.53847 15.5537 8.30001 15.6525 8.1242 15.8283C7.94838 16.0041 7.84961 16.2426 7.84961 16.4912C7.84961 16.7399 7.94838 16.9783 8.1242 17.1541C8.30001 17.3299 8.53847 17.4287 8.78711 17.4287H13.2865C13.5351 17.4287 13.7736 17.3299 13.9494 17.1541C14.1252 16.9783 14.224 16.7399 14.224 16.4912C14.224 16.2426 14.1252 16.0041 13.9494 15.8283C13.7736 15.6525 13.5351 15.5537 13.2865 15.5537H8.78711Z" fill="black"/>
<path d="M21.1515 14.4961C20.5118 14.4961 19.8864 14.6859 19.3545 15.0414C18.8226 15.3968 18.408 15.902 18.1632 16.4931C17.9184 17.0842 17.8543 17.7345 17.9792 18.362C18.104 18.9895 18.4121 19.5658 18.8644 20.0182C19.3168 20.4706 19.8932 20.7787 20.5206 20.9035C21.1481 21.0283 21.7985 20.9643 22.3896 20.7195C22.9806 20.4747 23.4859 20.0601 23.8413 19.5282C24.1968 18.9963 24.3865 18.3709 24.3866 17.7311C24.3856 16.8734 24.0444 16.0512 23.4379 15.4447C22.8315 14.8383 22.0092 14.4971 21.1515 14.4961ZM21.1515 19.0907C20.8827 19.0906 20.6199 19.0108 20.3963 18.8613C20.1728 18.7119 19.9986 18.4995 19.8958 18.2511C19.793 18.0026 19.7661 17.7293 19.8186 17.4656C19.8711 17.2019 20.0007 16.9597 20.1908 16.7696C20.381 16.5795 20.6232 16.4501 20.8869 16.3976C21.1507 16.3452 21.424 16.3722 21.6724 16.4751C21.9208 16.578 22.1331 16.7523 22.2825 16.9758C22.4318 17.1994 22.5116 17.4622 22.5116 17.7311C22.5111 18.0916 22.3677 18.4373 22.1127 18.6921C21.8577 18.947 21.5121 19.0903 21.1515 19.0907Z" fill="black"/>
<path d="M16.3669 29.0626C16.4901 29.0626 16.612 29.0384 16.7257 28.9913C16.8395 28.9442 16.9429 28.8752 17.0299 28.7881C17.117 28.701 17.186 28.5977 17.2331 28.4839C17.2802 28.3702 17.3045 28.2482 17.3044 28.1251C17.3044 27.1047 17.7098 26.1262 18.4313 25.4047C19.1528 24.6832 20.1314 24.2778 21.1517 24.2778C22.1721 24.2778 23.1506 24.6832 23.8722 25.4047C24.5937 26.1262 24.999 27.1047 24.999 28.1251C24.999 28.3737 25.0978 28.6122 25.2736 28.788C25.4494 28.9638 25.6879 29.0626 25.9365 29.0626C26.1851 29.0626 26.4236 28.9638 26.5994 28.788C26.7752 28.6122 26.874 28.3737 26.874 28.1251C26.874 26.6075 26.2711 25.152 25.198 24.0788C24.1248 23.0057 22.6694 22.4028 21.1517 22.4028C19.6341 22.4028 18.1786 23.0057 17.1055 24.0788C16.0323 25.152 15.4294 26.6075 15.4294 28.1251C15.4294 28.2482 15.4536 28.3702 15.5007 28.4839C15.5478 28.5977 15.6169 28.701 15.704 28.7881C15.791 28.8752 15.8944 28.9442 16.0081 28.9913C16.1219 29.0384 16.2438 29.0626 16.3669 29.0626Z" fill="black"/>
</svg>
