<svg width="30" height="29" viewBox="0 0 30 29" fill="none" xmlns="http://www.w3.org/2000/svg">
<path d="M25.802 8.3184L18.6857 1.43937C18.6263 1.37995 18.5549 1.33297 18.4759 1.30133C18.397 1.26969 18.3121 1.25408 18.2266 1.25545H6.60326C5.91439 1.25545 5.25373 1.51999 4.76662 1.99086C4.27951 2.46173 4.00586 3.10037 4.00586 3.76628V25.2338C4.00586 25.8997 4.27951 26.5384 4.76662 27.0092C5.25373 27.4801 5.91439 27.7446 6.60326 27.7446H23.3948C24.0837 27.7446 24.7444 27.4801 25.2315 27.0092C25.7186 26.5384 25.9922 25.8997 25.9922 25.2338V8.76219C25.9917 8.59582 25.9233 8.43636 25.802 8.3184ZM23.7754 8.13448H19.85C19.5917 8.13448 19.3439 8.03528 19.1613 7.85871C18.9786 7.68213 18.876 7.44264 18.876 7.19292V3.39844L23.7754 8.13448ZM23.3948 26.4892H6.60521C6.26077 26.4892 5.93044 26.357 5.68689 26.1215C5.44334 25.8861 5.30651 25.5668 5.30651 25.2338V3.76628C5.30651 3.43332 5.44334 3.114 5.68689 2.87857C5.93044 2.64313 6.26077 2.51087 6.60521 2.51087H17.5792V7.19292C17.5792 7.7756 17.8187 8.3344 18.2449 8.74642C18.6711 9.15843 19.2492 9.38989 19.852 9.38989H24.6955V25.2338C24.6955 25.3988 24.6618 25.5622 24.5964 25.7147C24.531 25.8671 24.4352 26.0056 24.3144 26.1222C24.1936 26.2388 24.0502 26.3312 23.8924 26.3942C23.7346 26.4572 23.5655 26.4895 23.3948 26.4892Z" fill="#A098AE"/>
<path d="M12.3916 10.9223C12.9117 10.9223 13.4202 10.7732 13.8527 10.4939C14.2851 10.2145 14.6222 9.81749 14.8213 9.35296C15.0203 8.88843 15.0724 8.37728 14.9709 7.88414C14.8694 7.391 14.619 6.93802 14.2512 6.58249C13.8834 6.22695 13.4148 5.98483 12.9046 5.88674C12.3945 5.78865 11.8657 5.83899 11.3852 6.03141C10.9046 6.22382 10.4939 6.54966 10.2049 6.96772C9.91596 7.38579 9.76172 7.8773 9.76172 8.3801C9.76258 9.05408 10.0399 9.70022 10.5329 10.1768C11.0259 10.6534 11.6944 10.9215 12.3916 10.9223ZM12.3916 7.0933C12.6549 7.0933 12.9122 7.16877 13.1311 7.31017C13.3501 7.45156 13.5207 7.65253 13.6214 7.88766C13.7222 8.12279 13.7485 8.38153 13.6972 8.63114C13.6458 8.88075 13.519 9.11004 13.3329 9.29C13.1467 9.46996 12.9095 9.59252 12.6513 9.64217C12.3931 9.69182 12.1254 9.66634 11.8822 9.56894C11.6389 9.47155 11.431 9.30662 11.2848 9.095C11.1385 8.88339 11.0604 8.6346 11.0604 8.3801C11.0609 8.03897 11.2013 7.71196 11.4509 7.47075C11.7004 7.22953 12.0387 7.0938 12.3916 7.0933Z" fill="#A098AE"/>
<path d="M8.58563 15.7866C8.75785 15.7866 8.92301 15.7205 9.04479 15.6028C9.16657 15.4851 9.23498 15.3254 9.23498 15.1589V14.776C9.23584 14.1593 9.48966 13.5681 9.94077 13.132C10.3919 12.6959 11.0035 12.4506 11.6415 12.4497H13.1415C13.7795 12.4506 14.3911 12.6959 14.8422 13.132C15.2933 13.5681 15.5471 14.1593 15.548 14.776V15.1589C15.548 15.3254 15.6164 15.4851 15.7382 15.6028C15.8599 15.7205 16.0251 15.7866 16.1973 15.7866C16.3695 15.7866 16.5347 15.7205 16.6565 15.6028C16.7783 15.4851 16.8467 15.3254 16.8467 15.1589V14.776C16.8455 13.8265 16.4547 12.9161 15.7601 12.2447C15.0655 11.5732 14.1238 11.1955 13.1415 11.1943H11.6415C10.6592 11.1955 9.71743 11.5732 9.02283 12.2447C8.32824 12.9161 7.93748 13.8265 7.93628 14.776V15.1589C7.93628 15.3254 8.00469 15.4851 8.12647 15.6028C8.24825 15.7205 8.41341 15.7866 8.58563 15.7866Z" fill="#A098AE"/>
<path d="M8.22406 20.3799H16.1039C16.2761 20.3799 16.4413 20.3138 16.5631 20.1961C16.6849 20.0784 16.7533 19.9187 16.7533 19.7522C16.7533 19.5857 16.6849 19.4261 16.5631 19.3084C16.4413 19.1906 16.2761 19.1245 16.1039 19.1245H8.22406C8.05184 19.1245 7.88667 19.1906 7.7649 19.3084C7.64312 19.4261 7.57471 19.5857 7.57471 19.7522C7.57471 19.9187 7.64312 20.0784 7.7649 20.1961C7.88667 20.3138 8.05184 20.3799 8.22406 20.3799Z" fill="#A098AE"/>
<path d="M20.5617 22.4297H8.22406C8.05184 22.4297 7.88667 22.4958 7.7649 22.6135C7.64312 22.7313 7.57471 22.8909 7.57471 23.0574C7.57471 23.2239 7.64312 23.3835 7.7649 23.5012C7.88667 23.619 8.05184 23.6851 8.22406 23.6851H20.5617C20.7339 23.6851 20.8991 23.619 21.0209 23.5012C21.1426 23.3835 21.2111 23.2239 21.2111 23.0574C21.2111 22.8909 21.1426 22.7313 21.0209 22.6135C20.8991 22.4958 20.7339 22.4297 20.5617 22.4297Z" fill="#A098AE"/>
</svg>
