<svg width="30" height="30" viewBox="0 0 30 30" fill="none" xmlns="http://www.w3.org/2000/svg">
<path d="M18.93 12.7757C18.93 12.2787 18.527 11.8757 18.03 11.8757H8.12998C7.63298 11.8757 7.22998 12.2787 7.22998 12.7757C7.22998 13.2727 7.63298 13.6757 8.12998 13.6757H18.03C18.527 13.6757 18.93 13.2727 18.93 12.7757Z" fill="#F3CD48"/>
<path d="M8.12803 16.4207C7.63103 16.4207 7.22803 16.8237 7.22803 17.3207C7.22803 17.8177 7.63103 18.2207 8.12803 18.2207H13.377C13.874 18.2207 14.277 17.8177 14.277 17.3207C14.277 16.8237 13.874 16.4207 13.377 16.4207H8.12803Z" fill="#F3CD48"/>
<path d="M24.86 12.8258C24.363 12.8258 23.96 13.2288 23.96 13.7258V21.0048C23.96 22.3668 22.852 23.4748 21.49 23.4748H15.47C15.275 23.4748 15.085 23.5378 14.929 23.6558L9.731 27.5648C9.599 27.6638 9.475 27.6228 9.413 27.5888C9.35 27.5568 9.246 27.4778 9.25 27.3168L9.35 24.4068C9.358 24.1628 9.267 23.9258 9.098 23.7508C8.929 23.5748 8.695 23.4758 8.451 23.4758H4.27C2.908 23.4758 1.8 22.3688 1.8 21.0058V9.10575C1.8 7.73875 2.908 6.62675 4.27 6.62675H15.36C15.857 6.62675 16.26 6.22375 16.26 5.72675C16.26 5.22975 15.857 4.82675 15.36 4.82675H4.27C1.916 4.82675 0 6.74675 0 9.10675V21.0058C0 23.3598 1.916 25.2768 4.27 25.2768H7.519L7.451 27.2588C7.427 28.0728 7.86 28.8128 8.583 29.1878C8.892 29.3488 9.225 29.4278 9.555 29.4278C9.998 29.4278 10.437 29.2847 10.811 29.0058L15.77 25.2768H21.489C23.843 25.2768 25.759 23.3608 25.759 21.0058V13.7268C25.76 13.2288 25.357 12.8258 24.86 12.8258Z" fill="#F3CD48"/>
<path d="M29.7251 4.25275C29.5621 3.75275 29.1611 3.37875 28.6521 3.25275L26.3521 2.67975L25.0961 0.66975C24.5391 -0.22425 23.0851 -0.22225 22.5291 0.66975L21.2731 2.67975L18.9731 3.25275C18.4641 3.37875 18.0621 3.75275 17.9001 4.25275C17.7381 4.75275 17.8421 5.29175 18.1801 5.69475L19.7041 7.50875L19.5381 9.87275C19.5011 10.3968 19.7331 10.8938 20.1581 11.2028C20.4221 11.3948 20.7321 11.4938 21.0461 11.4938C21.2371 11.4938 21.4301 11.4567 21.6151 11.3818L23.8131 10.4938L26.0101 11.3818C26.4971 11.5798 27.0411 11.5118 27.4671 11.2038C27.8921 10.8948 28.1241 10.3977 28.0881 9.87275L27.9221 7.50875L29.4461 5.69375C29.7831 5.29175 29.8881 4.75275 29.7251 4.25275ZM26.3091 6.62975C26.1591 6.80875 26.0841 7.03875 26.1011 7.27275L26.2611 9.54275L24.1511 8.68975C24.0431 8.64575 23.9281 8.62375 23.8141 8.62375C23.7001 8.62375 23.5851 8.64575 23.4771 8.68975L21.3681 9.54275L21.5271 7.27275C21.5431 7.03975 21.4681 6.80875 21.3191 6.62975L19.8561 4.88775L22.0641 4.33675C22.2901 4.27975 22.4861 4.13875 22.6091 3.94075L23.8151 2.01175L25.0211 3.94075C25.1451 4.13875 25.3401 4.28075 25.5661 4.33675L27.7741 4.88775L26.3091 6.62975Z" fill="#F3CD48"/>
</svg>
