<svg width="29" height="29" viewBox="0 0 29 29" fill="none" xmlns="http://www.w3.org/2000/svg">
<path d="M23.813 10.2848L21.84 11.0818C21.586 11.1848 21.319 11.2368 21.047 11.2368C20.464 11.2368 19.9 10.9908 19.501 10.5618C19.104 10.1358 18.899 9.55684 18.94 8.97384L19.089 6.85184L17.72 5.22384C17.416 4.86184 17.264 4.41884 17.243 3.96484H4.27C1.92 3.96484 0 5.88484 0 8.24484V20.1448C0 22.5048 1.92 24.4148 4.27 24.4148H7.52L7.45 26.4048C7.43 27.2148 7.86 27.9548 8.58 28.3348C8.89 28.4948 9.22 28.5748 9.56 28.5748C10 28.5748 10.44 28.4248 10.81 28.1448L15.77 24.4148H21.49C23.84 24.4148 25.76 22.5048 25.76 20.1448V11.0718L23.813 10.2848ZM13.377 17.3648H8.128C7.631 17.3648 7.228 16.9618 7.228 16.4648C7.228 15.9678 7.631 15.5648 8.128 15.5648H13.377C13.874 15.5648 14.277 15.9678 14.277 16.4648C14.277 16.9618 13.874 17.3648 13.377 17.3648ZM18.03 12.8188H8.13C7.633 12.8188 7.23 12.4158 7.23 11.9188C7.23 11.4218 7.633 11.0188 8.13 11.0188H18.03C18.527 11.0188 18.93 11.4218 18.93 11.9188C18.93 12.4158 18.527 12.8188 18.03 12.8188Z" fill="white"/>
<path d="M24.3332 0.28875L25.7822 2.60775L28.4352 3.26875C28.8752 3.37875 29.0482 3.91075 28.7572 4.25875L26.9992 6.35275L27.1902 9.07975C27.2222 9.53175 26.7692 9.86175 26.3482 9.69175L23.8132 8.66675L21.2782 9.69175C20.8582 9.86175 20.4042 9.53275 20.4362 9.07975L20.6272 6.35275L18.8692 4.25875C18.5772 3.91175 18.7512 3.37875 19.1912 3.26875L21.8442 2.60775L23.2932 0.28875C23.5322 -0.09625 24.0932 -0.09625 24.3332 0.28875Z" fill="white"/>
</svg>
