<svg width="30" height="30" viewBox="0 0 30 30" fill="none" xmlns="http://www.w3.org/2000/svg">
<path d="M18.9305 12.776C18.9305 12.279 18.5275 11.876 18.0305 11.876H8.13047C7.63347 11.876 7.23047 12.279 7.23047 12.776C7.23047 13.273 7.63347 13.676 8.13047 13.676H18.0305C18.5275 13.676 18.9305 13.273 18.9305 12.776Z" fill="#A098AE"/>
<path d="M8.12754 16.4209C7.63054 16.4209 7.22754 16.8239 7.22754 17.3209C7.22754 17.8179 7.63054 18.2209 8.12754 18.2209H13.3765C13.8735 18.2209 14.2765 17.8179 14.2765 17.3209C14.2765 16.8239 13.8735 16.4209 13.3765 16.4209H8.12754Z" fill="#A098AE"/>
<path d="M24.86 12.8257C24.363 12.8257 23.96 13.2287 23.96 13.7257V21.0047C23.96 22.3667 22.852 23.4747 21.49 23.4747H15.47C15.275 23.4747 15.085 23.5377 14.929 23.6557L9.731 27.5647C9.599 27.6637 9.475 27.6227 9.413 27.5887C9.35 27.5567 9.246 27.4777 9.25 27.3167L9.35 24.4067C9.358 24.1627 9.267 23.9257 9.098 23.7507C8.929 23.5747 8.695 23.4757 8.451 23.4757H4.27C2.908 23.4757 1.8 22.3687 1.8 21.0057V9.10566C1.8 7.73866 2.908 6.62666 4.27 6.62666H15.36C15.857 6.62666 16.26 6.22366 16.26 5.72666C16.26 5.22966 15.857 4.82666 15.36 4.82666H4.27C1.916 4.82666 0 6.74666 0 9.10666V21.0057C0 23.3597 1.916 25.2767 4.27 25.2767H7.519L7.451 27.2587C7.427 28.0727 7.86 28.8127 8.583 29.1877C8.892 29.3487 9.225 29.4277 9.555 29.4277C9.998 29.4277 10.437 29.2847 10.811 29.0057L15.77 25.2767H21.489C23.843 25.2767 25.759 23.3607 25.759 21.0057V13.7267C25.76 13.2287 25.357 12.8257 24.86 12.8257Z" fill="#A098AE"/>
<path d="M29.7251 4.25275C29.5621 3.75275 29.1611 3.37875 28.6521 3.25275L26.3521 2.67975L25.0961 0.66975C24.5391 -0.22425 23.0851 -0.22225 22.5291 0.66975L21.2731 2.67975L18.9731 3.25275C18.4641 3.37875 18.0621 3.75275 17.9001 4.25275C17.7381 4.75275 17.8421 5.29175 18.1801 5.69475L19.7041 7.50875L19.5381 9.87275C19.5011 10.3968 19.7331 10.8938 20.1581 11.2028C20.4221 11.3948 20.7321 11.4938 21.0461 11.4938C21.2371 11.4938 21.4301 11.4567 21.6151 11.3818L23.8131 10.4938L26.0101 11.3818C26.4971 11.5798 27.0411 11.5118 27.4671 11.2038C27.8921 10.8948 28.1241 10.3977 28.0881 9.87275L27.9221 7.50875L29.4461 5.69375C29.7831 5.29175 29.8881 4.75275 29.7251 4.25275ZM26.3091 6.62975C26.1591 6.80875 26.0841 7.03875 26.1011 7.27275L26.2611 9.54275L24.1511 8.68975C24.0431 8.64575 23.9281 8.62375 23.8141 8.62375C23.7001 8.62375 23.5851 8.64575 23.4771 8.68975L21.3681 9.54275L21.5271 7.27275C21.5431 7.03975 21.4681 6.80875 21.3191 6.62975L19.8561 4.88775L22.0641 4.33675C22.2901 4.27975 22.4861 4.13875 22.6091 3.94075L23.8151 2.01175L25.0211 3.94075C25.1451 4.13875 25.3401 4.28075 25.5661 4.33675L27.7741 4.88775L26.3091 6.62975Z" fill="#A098AE"/>
</svg>
