<svg width="32" height="32" viewBox="0 0 32 32" fill="none" xmlns="http://www.w3.org/2000/svg">
<path fill-rule="evenodd" clip-rule="evenodd" d="M26.5994 9.45372C26.6132 8.41226 26.2228 7.36642 25.4282 6.57175C24.6335 5.77708 23.5877 5.38668 22.5462 5.40053C22.5458 5.40054 22.5466 5.40053 22.5462 5.40053C21.9706 5.40836 21.3951 5.5397 20.8654 5.79452C20.6755 5.88584 20.4914 5.99303 20.315 6.11607C20.2471 6.16346 20.1596 6.17427 20.0831 6.14254C20.0066 6.11083 19.9524 6.04134 19.9379 5.95986C19.9001 5.7481 19.8457 5.54211 19.776 5.34329C19.5816 4.78852 19.2684 4.2896 18.8669 3.87704C18.8667 3.87676 18.8672 3.87732 18.8669 3.87704C18.1403 3.13081 17.1239 2.6665 16.0001 2.6665C14.8763 2.6665 13.8607 3.12997 13.134 3.87619C13.1338 3.87647 13.1343 3.87591 13.134 3.87619C12.7326 4.28875 12.4185 4.78852 12.2241 5.34329C12.1545 5.5421 12.1001 5.7481 12.0623 5.95986C12.0478 6.04134 11.9935 6.11083 11.9171 6.14254C11.8406 6.17427 11.7531 6.16345 11.6852 6.11607C11.5087 5.99302 11.3246 5.88584 11.1348 5.79452C10.605 5.5397 10.0308 5.40837 9.45514 5.40055C9.45475 5.40054 9.45553 5.40055 9.45514 5.40055C8.41368 5.38669 7.36666 5.77708 6.57199 6.57175C5.77732 7.36641 5.38692 8.41226 5.40078 9.45372C5.40077 9.45333 5.40078 9.45411 5.40078 9.45372C5.4086 10.0293 5.53994 10.6048 5.79476 11.1345C5.88608 11.3244 5.99327 11.5085 6.11631 11.6849C6.1637 11.7529 6.17451 11.8403 6.14278 11.9168C6.11108 11.9933 6.04158 12.0475 5.9601 12.0621C5.74833 12.0998 5.54234 12.1542 5.34351 12.2239C4.78875 12.4183 4.28984 12.7315 3.87728 13.133C3.877 13.1333 3.87756 13.1327 3.87728 13.133C3.13106 13.8596 2.66675 14.876 2.66675 15.9998C2.66675 17.1237 3.13021 18.1392 3.87644 18.8659C3.87616 18.8656 3.87672 18.8661 3.87644 18.8659C4.289 19.2674 4.78875 19.5814 5.34351 19.7758C5.54233 19.8455 5.74833 19.8999 5.9601 19.9376C6.04158 19.9521 6.11108 20.0064 6.14278 20.0828C6.17451 20.1594 6.1637 20.2468 6.11631 20.3148C5.99327 20.4912 5.88608 20.6753 5.79476 20.8652C5.53994 21.3949 5.40862 21.9692 5.40079 22.5448C5.40079 22.5452 5.4008 22.5444 5.40079 22.5448C5.38694 23.5862 5.77732 24.6333 6.57199 25.4279C7.36666 26.2226 8.4125 26.613 9.45397 26.5991C9.45358 26.5991 9.45436 26.5991 9.45397 26.5991C10.0296 26.5913 10.605 26.46 11.1347 26.2052C11.3246 26.1138 11.5087 26.0067 11.6852 25.8836C11.7531 25.8362 11.8406 25.8254 11.9171 25.8571C11.9935 25.8888 12.0478 25.9583 12.0623 26.0398C12.1001 26.2516 12.1545 26.4576 12.2241 26.6564C12.4185 27.2112 12.7317 27.7101 13.1332 28.1226C13.133 28.1224 13.1335 28.1229 13.1332 28.1226C13.8599 28.8689 14.8763 29.3332 16.0001 29.3332C17.1239 29.3332 18.1395 28.8697 18.8661 28.1235C18.8658 28.1238 18.8664 28.1232 18.8661 28.1235C19.2676 27.7109 19.5816 27.2112 19.776 26.6564C19.8457 26.4576 19.9001 26.2516 19.9379 26.0398C19.9524 25.9583 20.0066 25.8888 20.0831 25.8571C20.1596 25.8254 20.2471 25.8362 20.315 25.8836C20.4914 26.0067 20.6756 26.1138 20.8654 26.2052C21.3952 26.46 21.9694 26.5913 22.545 26.5991C22.5446 26.5991 22.5454 26.5991 22.545 26.5991C23.5865 26.613 24.6335 26.2226 25.4282 25.4279C26.2228 24.6333 26.6132 23.5874 26.5994 22.546C26.5994 22.5456 26.5994 22.5463 26.5994 22.546C26.5916 21.9703 26.4602 21.3949 26.2054 20.8652C26.1141 20.6753 26.0069 20.4912 25.8839 20.3148C25.8365 20.2468 25.8257 20.1594 25.8574 20.0828C25.8891 20.0064 25.9586 19.9521 26.0401 19.9376C26.2518 19.8999 26.4578 19.8455 26.6567 19.7758C27.2114 19.5814 27.7103 19.2682 28.1229 18.8667C28.1226 18.867 28.1232 18.8664 28.1229 18.8667C28.8691 18.1401 29.3334 17.1237 29.3334 15.9998C29.3334 14.876 28.8699 13.8604 28.1237 13.1338C28.1234 13.1335 28.124 13.1341 28.1237 13.1338C27.7112 12.7323 27.2114 12.4183 26.6567 12.2239C26.4578 12.1542 26.2518 12.0998 26.0401 12.0621C25.9586 12.0475 25.8891 11.9933 25.8574 11.9168C25.8257 11.8403 25.8365 11.7529 25.8839 11.6849C26.0069 11.5085 26.1141 11.3244 26.2054 11.1345C26.4602 10.6048 26.5916 10.0293 26.5994 9.45372C26.5994 9.45333 26.5994 9.45411 26.5994 9.45372ZM23.5426 8.45736C23.0807 7.99547 22.3589 7.94176 21.8405 8.30333C21.0539 8.8519 20.0093 8.9988 19.0616 8.60581C18.1164 8.21385 17.481 7.37297 17.3126 6.42782C17.2017 5.80556 16.6533 5.33317 16.0001 5.33317C15.3469 5.33317 14.7985 5.80556 14.6876 6.42782C14.5191 7.37295 13.8838 8.21385 12.9385 8.60581C11.9908 8.99879 10.9463 8.85189 10.1597 8.30332C9.64128 7.94176 8.9195 7.99547 8.45761 8.45736C7.99572 8.91925 7.942 9.64104 8.30357 10.1595C8.85214 10.946 8.99904 11.9906 8.60606 12.9383C8.21409 13.8835 7.3732 14.5189 6.42806 14.6873C5.8058 14.7983 5.33341 15.3466 5.33341 15.9998C5.33341 16.653 5.80581 17.2014 6.42806 17.3123C7.3732 17.4808 8.21409 18.1161 8.60606 19.0614C8.99904 20.0091 8.85214 21.0537 8.30357 21.8402C7.942 22.3586 7.99572 23.0804 8.45761 23.5423C8.9195 24.0042 9.64128 24.0579 10.1597 23.6964C10.9463 23.1478 11.9908 23.0009 12.9385 23.3939C13.8838 23.7858 14.5191 24.6267 14.6876 25.5719C14.7985 26.1941 15.3469 26.6665 16.0001 26.6665C16.6533 26.6665 17.2017 26.1941 17.3126 25.5719C17.481 24.6267 18.1164 23.7858 19.0616 23.3939C20.0093 23.0009 21.0539 23.1478 21.8405 23.6963C22.3589 24.0579 23.0807 24.0042 23.5426 23.5423C24.0044 23.0804 24.0582 22.3586 23.6966 21.8402C23.148 21.0537 23.0011 20.0091 23.3941 19.0614C23.7861 18.1162 24.627 17.4808 25.5721 17.3123C26.1944 17.2014 26.6667 16.6531 26.6667 15.9998C26.6667 15.3466 26.1944 14.7983 25.5721 14.6873C24.627 14.5189 23.7861 13.8835 23.3941 12.9383C23.0011 11.9906 23.148 10.946 23.6966 10.1595C24.0582 9.64103 24.0044 8.91926 23.5426 8.45736Z" fill="#A098AE"/>
<path fill-rule="evenodd" clip-rule="evenodd" d="M16.0001 18.6665C17.4728 18.6665 18.6667 17.4726 18.6667 15.9998C18.6667 14.5271 17.4728 13.3332 16.0001 13.3332C14.5273 13.3332 13.3334 14.5271 13.3334 15.9998C13.3334 17.4726 14.5273 18.6665 16.0001 18.6665ZM16.0001 21.3332C18.9456 21.3332 21.3334 18.9454 21.3334 15.9998C21.3334 13.0543 18.9456 10.6665 16.0001 10.6665C13.0546 10.6665 10.6667 13.0543 10.6667 15.9998C10.6667 18.9454 13.0546 21.3332 16.0001 21.3332Z" fill="#A098AE"/>
</svg>
