<svg width="32" height="32" viewBox="0 0 32 32" fill="none" xmlns="http://www.w3.org/2000/svg">
<g clip-path="url(#clip0_344_6152)">
<path fill-rule="evenodd" clip-rule="evenodd" d="M14.5389 20.0011C15.2748 19.9733 15.8938 20.5473 15.9216 21.2832C15.9842 22.9421 16.0722 24.1529 16.1587 25.021C16.2438 25.8759 16.7599 26.3903 17.4794 26.4783C18.3277 26.582 19.5244 26.6668 21.1666 26.6668C22.8089 26.6668 24.0056 26.582 24.854 26.4782C25.573 26.3903 26.0894 25.8757 26.1746 25.0206C26.3351 23.4092 26.5 20.6253 26.5 16.0002C26.5 11.3751 26.3351 8.59111 26.1746 6.97973C26.0894 6.1246 25.573 5.60998 24.854 5.52208C24.0056 5.41837 22.8089 5.3335 21.1666 5.3335C19.5244 5.3335 18.3277 5.41837 17.4794 5.52207C16.7599 5.61001 16.2438 6.1244 16.1587 6.97932C16.0722 7.84743 15.9842 9.05821 15.9216 10.7171C15.8938 11.453 15.2748 12.027 14.5389 11.9992C13.8031 11.9714 13.229 11.3524 13.2568 10.6165C13.3211 8.91382 13.4122 7.6474 13.5051 6.71498C13.7004 4.75476 15.0671 3.13043 17.1558 2.8751C18.1281 2.75625 19.4344 2.66683 21.1666 2.66683C22.8989 2.66683 24.2053 2.75626 25.1775 2.87512C27.2665 3.13048 28.6329 4.75556 28.8281 6.7154C29 8.44107 29.1666 11.3181 29.1666 16.0002C29.1666 20.6822 29 23.5593 28.8281 25.2849C28.6329 27.2448 27.2665 28.8698 25.1775 29.1252C24.2053 29.2441 22.8989 29.3335 21.1666 29.3335C19.4344 29.3335 18.1281 29.2441 17.1558 29.1252C15.0671 28.8699 13.7004 27.2456 13.5051 25.2853C13.4122 24.3529 13.3211 23.0865 13.2568 21.3838C13.229 20.6479 13.8031 20.0289 14.5389 20.0011Z" fill="#A098AE"/>
<path fill-rule="evenodd" clip-rule="evenodd" d="M9.44281 19.7239C9.96351 20.2446 9.96351 21.0888 9.44281 21.6095C8.92211 22.1302 8.07789 22.1302 7.55719 21.6095L2.89052 16.9428C2.36983 16.4221 2.36983 15.5779 2.89052 15.0572L7.55719 10.3905C8.07789 9.86983 8.92211 9.86983 9.44281 10.3905C9.96351 10.9112 9.96351 11.7554 9.44281 12.2761L7.05228 14.6667H19.8333C20.5697 14.6667 21.1667 15.2636 21.1667 16C21.1667 16.7364 20.5697 17.3333 19.8333 17.3333L7.05228 17.3333L9.44281 19.7239Z" fill="#A098AE"/>
</g>
<defs>
<clipPath id="clip0_344_6152">
<rect width="32" height="32" fill="white"/>
</clipPath>
</defs>
</svg>
